<?xml version="1.0" standalone="no"?>
<!DOCTYPE svg PUBLIC "-//W3C//DTD SVG 20010904//EN"
 "http://www.w3.org/TR/2001/REC-SVG-20010904/DTD/svg10.dtd">
<svg version="1.0" xmlns="http://www.w3.org/2000/svg"
 width="512.000000pt" height="512.000000pt" viewBox="0 0 512.000000 512.000000"
 preserveAspectRatio="xMidYMid meet">
<metadata>
Created by potrace 1.11, written by Peter Selinger 2001-2013
</metadata>
<g transform="translate(0.000000,512.000000) scale(0.100000,-0.100000)"
fill="#000000" stroke="none">
<path d="M4327 4874 c-1 -1 -37 -4 -80 -7 -203 -16 -458 -129 -647 -285 -314
-260 -492 -597 -505 -952 -4 -130 8 -222 42 -309 33 -84 32 -120 -8 -195 -80
-155 -266 -329 -511 -482 l-88 -54 -67 47 c-38 26 -73 52 -79 57 -6 6 -28 27
-50 46 -141 127 -241 292 -289 474 -28 107 -36 168 -37 294 -1 191 -76 367
-206 487 -41 37 -393 314 -507 399 -22 17 -42 33 -45 36 -3 3 -86 69 -185 145
-99 77 -182 142 -185 145 -7 8 -163 125 -176 133 -6 3 -32 -15 -59 -40 l-48
-47 69 -64 c38 -36 103 -97 144 -136 69 -65 276 -259 375 -352 22 -20 103 -96
179 -168 77 -72 171 -161 210 -197 39 -37 97 -91 128 -120 l57 -54 -63 -62
-63 -62 -562 563 -563 562 -49 -49 c-27 -27 -49 -52 -49 -56 0 -3 252 -258
560 -566 l560 -560 -53 -52 -53 -52 -560 560 c-307 307 -562 559 -566 559 -10
0 -88 -78 -88 -87 0 -5 250 -258 555 -563 l554 -555 -23 -25 c-12 -14 -41 -43
-64 -64 l-42 -40 -27 31 c-24 26 -224 239 -343 364 -50 52 -291 307 -331 350
-19 20 -95 100 -169 179 -74 78 -150 160 -169 181 -19 21 -38 39 -42 39 -4 0
-30 -23 -58 -51 -50 -50 -50 -51 -33 -73 9 -12 120 -152 247 -311 379 -477
515 -649 533 -670 10 -11 31 -38 47 -60 74 -102 188 -179 324 -221 50 -15 98
-21 236 -29 266 -15 474 -111 668 -308 103 -104 150 -167 137 -182 -6 -8 -386
-388 -844 -847 -772 -772 -834 -837 -853 -888 -38 -100 -14 -207 63 -284 75
-74 135 -100 223 -97 99 3 84 -10 956 861 l820 820 377 -378 c1138 -1138 1262
-1259 1308 -1277 167 -64 350 62 350 241 0 104 19 83 -889 991 -795 796 -841
844 -830 865 7 13 29 48 51 78 21 30 44 63 51 74 24 37 122 152 172 201 69 69
130 117 195 153 77 43 115 48 172 23 142 -60 362 -70 558 -25 456 106 866 503
994 964 24 85 27 107 31 220 3 112 -6 195 -31 263 -8 23 -17 49 -19 58 -13 60
-92 176 -175 260 -134 136 -288 209 -478 227 -45 4 -84 7 -85 6z m-269 -321
c-56 -49 -257 -244 -318 -308 -113 -118 -179 -219 -239 -365 -12 -30 -26 -64
-31 -75 -42 -100 -99 -264 -104 -302 -1 -7 -5 -15 -8 -18 -22 -22 -18 221 6
341 23 117 70 248 117 327 94 158 334 343 539 417 79 28 85 25 38 -17z"/>
</g>
</svg>
